<svg xmlns="http://www.w3.org/2000/svg" viewBox="0 354.35 612 83.3"><style>.a{fill:#4A90E2;}</style><path d="M309.68 356.62c-0.85 0-1.7 0.28-2.27 1.13 -0.57 0.57-0.85 1.42-0.85 2.55v64.88l-49.58-66.87c-0.85-1.13-1.7-1.7-2.83-1.7s-1.98 0.28-2.55 1.13c-0.57 0.57-0.85 1.42-0.85 2.55v73.67c0 1.13 0.28 1.98 0.85 2.55 0.57 0.57 1.42 0.85 2.55 0.85 0.85 0 1.7-0.28 2.27-1.13 0.57-0.57 0.85-1.42 0.85-2.55v-64.6l49.58 66.87c0.85 1.13 1.98 1.7 3.12 1.7 1.13 0 1.98-0.28 2.55-1.13 0.57-0.57 0.85-1.42 0.85-2.55v-73.67c0-1.13-0.28-1.98-0.85-2.55C311.67 356.9 310.82 356.62 309.68 356.62zM570.35 354.35c-22.95 0-41.65 18.7-41.65 41.65s18.7 41.65 41.65 41.65C593.3 437.65 612 418.95 612 396S593.3 354.35 570.35 354.35zM570.35 430.85c-19.27 0-34.85-15.58-34.85-34.85s15.58-34.85 34.85-34.85S605.2 376.73 605.2 396 589.62 430.85 570.35 430.85zM501.5 356.62c-0.85 0-1.7 0.28-2.27 1.13 -0.57 0.57-0.85 1.42-0.85 2.55v64.88l-49.58-66.87c-0.85-1.13-1.7-1.7-2.83-1.7 -1.13 0-1.98 0.28-2.55 1.13 -0.57 0.57-0.85 1.42-0.85 2.55v73.67c0 1.13 0.28 1.98 0.85 2.55 0.57 0.57 1.42 0.85 2.55 0.85 0.85 0 1.7-0.28 2.27-1.13 0.57-0.57 0.85-1.42 0.85-2.55v-64.6l49.58 66.87c0.85 1.13 1.98 1.7 3.12 1.7 1.13 0 1.98-0.28 2.55-1.13 0.57-0.57 0.85-1.42 0.85-2.55v-73.67c0-1.13-0.28-1.98-0.85-2.55C503.48 356.9 502.63 356.62 501.5 356.62zM381.65 358.88c-0.28-0.85-0.85-1.42-1.42-1.7 -0.85-0.57-1.42-0.57-2.27-0.57 -1.7 0-3.12 0.85-3.68 2.55l-33.15 74.23c-0.28 0.28-0.28 0.85-0.28 1.13 0 0.85 0.28 1.7 0.85 2.27 0.57 0.57 1.42 0.85 2.27 0.85 1.42 0 2.55-0.85 3.12-2.27l8.78-19.83h43.92l8.5 19.83c0.28 0.57 0.85 1.13 1.42 1.7 0.57 0.28 1.13 0.57 1.7 0.57 0.85 0 1.7-0.28 2.27-0.85 0.57-0.57 1.13-1.13 1.13-1.98 0-0.57 0-0.85-0.28-1.42L381.65 358.88zM358.42 409.6l19.27-43.92 19.27 43.92H358.42L358.42 409.6z" fill="#000034"/><circle cx="13.6" cy="423.48" r="13.6" class="a"/><path d="M175.67 356.05c-7.37 0-13.6 5.95-13.6 13.6 0 10.77-1.7 13.54-13.6 13.54 -0.38 0-0.82 0.02-1.13 0.06 -6.77 0.73-12.18 6.23-12.18 13.32v0.28c0 10.48-1.98 13.03-13.6 13.03 -0.43 0-1.03 0.08-1.42 0.13 -6.79 0.9-12.18 6.67-12.18 13.47 0 7.37 5.95 13.6 13.6 13.6 7.08 0 13.03-5.67 13.32-12.47v-1.13c0-9.63 3.12-13.32 13.32-13.6h0.28c7.08 0 13.03-5.67 13.32-12.75v-0.85c0-9.92 3.12-13.6 13.6-13.6 7.37 0 13.6-5.95 13.6-13.6C188.98 362 183.03 356.05 175.67 356.05zM95.77 383.25h-1.13c-11.9 0-13.6-2.83-13.6-13.6 0-7.37-5.95-13.6-13.6-13.6 -7.37 0-13.6 5.95-13.6 13.6 0 10.77-1.7 13.32-13.6 13.32h-1.13c-6.2 0.06-12.18 6.23-12.18 13.32 0 7.37 5.95 13.6 13.6 13.6 7.08 0 13.03-5.67 13.32-12.47v-0.85c0-9.92 3.12-13.6 13.6-13.6 10.48 0 13.6 3.68 13.6 13.32 0 7.37 5.95 13.6 13.6 13.6s13.6-5.95 13.6-13.6C107.95 389.48 102.3 383.47 95.77 383.25L95.77 383.25z" class="a"/></svg>