<svg xmlns="http://www.w3.org/2000/svg" viewBox="0 354.35 188.98 82.73"><style>.a{fill:#4A90E2;}</style><circle cx="13.6" cy="423.48" r="13.6" class="a"/><path d="M175.67 356.05c-7.37 0-13.6 5.95-13.6 13.6 0 10.77-1.7 13.54-13.6 13.54 -0.38 0-0.82 0.02-1.13 0.06 -6.77 0.73-12.18 6.23-12.18 13.32v0.28c0 10.48-1.98 13.03-13.6 13.03 -0.43 0-1.03 0.08-1.42 0.13 -6.79 0.9-12.18 6.67-12.18 13.47 0 7.37 5.95 13.6 13.6 13.6 7.08 0 13.03-5.67 13.32-12.47v-1.13c0-9.63 3.12-13.32 13.32-13.6h0.28c7.08 0 13.03-5.67 13.32-12.75v-0.85c0-9.92 3.12-13.6 13.6-13.6 7.37 0 13.6-5.95 13.6-13.6C188.98 362 183.03 356.05 175.67 356.05zM95.77 383.25h-1.13c-11.9 0-13.6-2.83-13.6-13.6 0-7.37-5.95-13.6-13.6-13.6 -7.37 0-13.6 5.95-13.6 13.6 0 10.77-1.7 13.32-13.6 13.32h-1.13c-6.2 0.06-12.18 6.23-12.18 13.32 0 7.37 5.95 13.6 13.6 13.6 7.08 0 13.03-5.67 13.32-12.47v-0.85c0-9.92 3.12-13.6 13.6-13.6 10.48 0 13.6 3.68 13.6 13.32 0 7.37 5.95 13.6 13.6 13.6s13.6-5.95 13.6-13.6C107.95 389.48 102.3 383.47 95.77 383.25L95.77 383.25z" class="a"/></svg>